<svg xmlns="http://www.w3.org/2000/svg" xmlns:xlink="http://www.w3.org/1999/xlink" width="1000" height="339" viewBox="0 0 1000 339" role="img" aria-label="Pedro Leme - Senior Software Engineer, Full Stack .NET and React" font-family="'JetBrains Mono','Fira Code',ui-monospace,SFMono-Regular,Menlo,Consolas,'Liberation Mono',monospace">

  <rect x="1" y="1" width="998" height="337" rx="12" fill="#0a0a0a" stroke="#1f2937" stroke-width="1.5"/>
  <path d="M1 13a12 12 0 0 1 12-12h974a12 12 0 0 1 12 12v27H1z" fill="#101010"/>
  <line x1="1" y1="40" x2="999" y2="40" stroke="#1f2937" stroke-width="1.5"/>

  <circle cx="26" cy="20" r="6" fill="#ff5f57"/>
  <circle cx="48" cy="20" r="6" fill="#febc2e"/>
  <circle cx="70" cy="20" r="6" fill="#28c840"/>
  <text x="500" y="25" font-size="12" fill="#6b7280" text-anchor="middle">pedro-leme@github ~ %</text>

  <text x="40" y="88" font-size="15" fill="#6b7280"><tspan fill="#4ade80">$</tspan> whoami --role</text>

  <text x="40" y="136" font-size="33" font-weight="700" fill="#e6edf3">Senior Software Engineer</text>

  <text x="40" y="178" font-size="21" font-weight="600" fill="#4ade80">Full Stack &#183; .NET &amp; React<tspan>_<animate attributeName="opacity" values="1;1;0;0" dur="1.1s" repeatCount="indefinite"/></tspan></text>

  <text x="40" y="228" font-size="15" fill="#6b7280"><tspan fill="#4ade80">$</tspan> ls ./stack</text>

  <g transform="translate(40, 252) scale(0.22137)">
    
        <g transform="translate(0, 0)">
          <svg xmlns="http://www.w3.org/2000/svg" width="256" height="256" fill="none" viewBox="0 0 256 256"><rect width="256" height="256" fill="#953CAD" rx="60"/><path fill="#fff" d="M195.436 100.668V114.142H208.91V100.668H215.647V114.142H229.12V120.879H215.647V134.352H229.12V141.089H215.647V154.563H208.91V141.089H195.436V154.563H188.699V141.089H175.226V134.352H188.699V120.879H175.226V114.142H188.699V100.668H195.436ZM208.91 120.879H195.436V134.352H208.91V120.879Z"/><path fill="#fff" d="M122.001 33C157.144 33 187.828 52.0863 204.262 80.4561L204.102 80.183L162.753 103.991C154.607 90.1977 139.672 80.8892 122.54 80.6975L122.001 80.6945C95.875 80.6945 74.6945 101.874 74.6945 127.999C74.6945 136.543 76.9723 144.552 80.9335 151.469C89.0876 165.704 104.416 175.306 122.001 175.306C139.693 175.306 155.109 165.582 163.222 151.195L163.025 151.54L204.311 175.458C188.057 203.588 157.794 222.615 123.059 222.994L122.001 223C86.746 223 55.9753 203.796 39.582 175.276C31.5791 161.353 27 145.212 27 127.999C27 75.5334 69.5323 33 122.001 33Z"/></svg>
        </g>
         
        <g transform="translate(300, 0)">
          <svg xmlns="http://www.w3.org/2000/svg" width="256" height="256" fill="none" viewBox="0 0 256 256"><rect width="256" height="256" fill="#512BD4" rx="60"/><path fill="#fff" d="M24.0522 168.943C21.8155 168.943 19.9143 168.212 18.3486 166.749C16.7829 165.248 16 163.466 16 161.402C16 159.301 16.7829 157.5 18.3486 155.999C19.9143 154.499 21.8155 153.748 24.0522 153.748C26.3262 153.748 28.246 154.499 29.8118 155.999C31.4147 157.5 32.2162 159.301 32.2162 161.402C32.2162 163.466 31.4147 165.248 29.8118 166.749C28.246 168.212 26.3262 168.943 24.0522 168.943Z"/><path fill="#fff" d="M113.467 167.705H98.9285L60.625 108.387C59.6558 106.886 58.8539 105.328 58.2205 103.715H57.8848C58.1831 105.441 58.3322 109.137 58.3322 114.802V167.705H45.4707V87H60.96L97.9781 144.912C99.5439 147.314 100.55 148.964 100.998 149.865H101.221C100.849 147.726 100.662 144.106 100.662 139.002V87H113.467V167.705Z"/><path fill="#fff" d="M176.098 167.705H131.084V87H174.309V98.3688H144.393V121.218H171.961V132.53H144.393V156.393H176.098V167.705Z"/><path fill="#fff" d="M240.071 98.3688H217.033V167.705H203.724V98.3688H180.742V87H240.071V98.3688Z"/></svg>
        </g>
         
        <g transform="translate(600, 0)">
          <svg xmlns="http://www.w3.org/2000/svg" width="256" height="256" fill="none" viewBox="0 0 256 256"><rect width="256" height="256" fill="#242938" rx="60"/><path fill="#00D8FF" d="M128.001 146.951C138.305 146.951 146.657 138.598 146.657 128.295C146.657 117.992 138.305 109.639 128.001 109.639C117.698 109.639 109.345 117.992 109.345 128.295C109.345 138.598 117.698 146.951 128.001 146.951Z"/><path fill-rule="evenodd" stroke="#00D8FF" stroke-width="8.911" d="M128.002 90.3633C153.05 90.3633 176.319 93.9575 193.864 99.9976C215.003 107.275 228 118.306 228 128.295C228 138.704 214.226 150.423 191.525 157.944C174.363 163.63 151.779 166.598 128.002 166.598C103.624 166.598 80.5389 163.812 63.1834 157.881C41.2255 150.376 28 138.506 28 128.295C28 118.387 40.4096 107.441 61.2515 100.175C78.8617 94.0353 102.705 90.3633 127.998 90.3633H128.002Z" clip-rule="evenodd"/><path fill-rule="evenodd" stroke="#00D8FF" stroke-width="8.911" d="M94.9811 109.438C107.495 87.7402 122.232 69.3783 136.23 57.1971C153.094 42.5206 169.144 36.7728 177.796 41.7623C186.813 46.9623 190.084 64.7496 185.259 88.1712C181.614 105.879 172.9 126.925 161.021 147.523C148.842 168.641 134.897 187.247 121.09 199.315C103.619 214.587 86.7284 220.114 77.8833 215.013C69.3003 210.067 66.0181 193.846 70.1356 172.161C73.6145 153.838 82.3451 131.349 94.977 109.438L94.9811 109.438Z" clip-rule="evenodd"/><path fill-rule="evenodd" stroke="#00D8FF" stroke-width="8.911" d="M95.0123 147.578C82.4633 125.904 73.9194 103.962 70.3531 85.7517C66.0602 63.8109 69.0954 47.0355 77.7401 42.0315C86.7485 36.8163 103.792 42.866 121.674 58.7437C135.194 70.7479 149.077 88.8052 160.99 109.383C173.204 130.481 182.358 151.856 185.919 169.844C190.425 192.608 186.778 210.001 177.941 215.116C169.367 220.08 153.676 214.825 136.945 200.427C122.809 188.263 107.685 169.468 95.0123 147.578Z" clip-rule="evenodd"/></svg>
        </g>
         
        <g transform="translate(900, 0)">
          <svg xmlns="http://www.w3.org/2000/svg" width="256" height="256" fill="none" viewBox="0 0 256 256"><rect width="256" height="256" fill="#242938" rx="60"/><path fill="#fff" d="M121.451 28.0537C121.021 28.0928 119.652 28.2297 118.42 28.3274C90.0137 30.8885 63.4057 46.216 46.5533 69.7742C37.1691 82.8729 31.1672 97.7312 28.8993 113.469C28.0978 118.963 28 120.586 28 128.034C28 135.483 28.0978 137.106 28.8993 142.599C34.3343 180.155 61.0596 211.71 97.306 223.401C103.797 225.493 110.639 226.92 118.42 227.78C121.451 228.112 134.549 228.112 137.58 227.78C151.011 226.294 162.389 222.971 173.611 217.242C175.331 216.363 175.664 216.128 175.429 215.933C175.273 215.815 167.941 205.981 159.144 194.095L143.152 172.492L123.112 142.834C112.086 126.529 103.015 113.195 102.936 113.195C102.858 113.176 102.78 126.353 102.741 142.443C102.682 170.615 102.663 171.749 102.311 172.413C101.803 173.371 101.412 173.762 100.59 174.193C99.9648 174.505 99.4174 174.564 96.4653 174.564H93.0831L92.1838 173.997C91.5973 173.626 91.1672 173.137 90.8739 172.57L90.4633 171.69L90.5024 132.492L90.5611 93.2737L91.1672 92.5112C91.48 92.1007 92.1447 91.5728 92.6139 91.3186C93.4154 90.9276 93.7283 90.8885 97.1105 90.8885C101.099 90.8885 101.763 91.0449 102.8 92.1789C103.093 92.4917 113.943 108.836 126.925 128.523C139.906 148.21 157.658 175.092 166.377 188.288L182.213 212.277L183.015 211.749C190.111 207.135 197.619 200.566 203.562 193.723C216.211 179.197 224.364 161.485 227.101 142.599C227.902 137.106 228 135.483 228 128.034C228 120.586 227.902 118.963 227.101 113.469C221.666 75.913 194.94 44.3587 158.694 32.6676C152.301 30.5953 145.498 29.1681 137.873 28.3079C135.996 28.1124 123.073 27.8973 121.451 28.0537ZM162.389 88.5425C163.327 89.0117 164.09 89.911 164.364 90.8494C164.52 91.3577 164.559 102.228 164.52 126.724L164.461 161.876L158.264 152.374L152.047 142.873V117.321C152.047 100.801 152.125 91.5141 152.242 91.0645C152.555 89.9697 153.239 89.1095 154.178 88.6011C154.979 88.1906 155.273 88.1515 158.342 88.1515C161.236 88.1515 161.744 88.1906 162.389 88.5425Z"/></svg>
        </g>
         
        <g transform="translate(1200, 0)">
          <svg xmlns="http://www.w3.org/2000/svg" width="256" height="256" fill="none" viewBox="0 0 256 256"><rect width="256" height="256" fill="#007ACC" rx="60"/><path fill="#fff" d="M56.6112 128.849L56.5299 139.333H73.1902H89.8505L89.8505 186.673V234.012H101.635H113.419V186.673L113.419 139.333H130.079H146.739V129.052C146.739 123.363 146.618 118.609 146.455 118.487C146.333 118.325 126.056 118.243 101.472 118.284L56.7331 118.406L56.6112 128.849Z"/><path fill="#fff" d="M206.567 118.108C213.068 119.734 218.026 122.619 222.577 127.332C224.934 129.852 228.428 134.444 228.713 135.541C228.794 135.866 217.66 143.343 210.915 147.528C210.671 147.691 209.695 146.634 208.598 145.009C205.307 140.214 201.853 138.141 196.57 137.776C188.809 137.247 183.811 141.311 183.852 148.097C183.852 150.088 184.136 151.266 184.949 152.892C186.655 156.427 189.825 158.54 199.781 162.847C218.107 170.731 225.949 175.932 230.826 183.327C236.271 191.576 237.49 204.742 233.792 214.535C229.729 225.181 219.651 232.414 205.469 234.812C201.081 235.584 190.678 235.462 185.965 234.609C175.684 232.78 165.932 227.701 159.918 221.037C157.561 218.436 152.969 211.65 153.254 211.162C153.375 211 154.432 210.35 155.61 209.659C156.748 209.009 161.056 206.53 165.119 204.173L172.474 199.906L174.018 202.182C176.172 205.473 180.885 209.984 183.73 211.487C191.897 215.795 203.113 215.185 208.639 210.228C210.996 208.074 211.971 205.839 211.971 202.548C211.971 199.581 211.605 198.281 210.061 196.046C208.07 193.202 204.007 190.804 192.466 185.806C179.26 180.117 173.571 176.582 168.37 170.974C165.363 167.724 162.518 162.522 161.34 158.174C160.365 154.558 160.121 145.496 160.893 141.839C163.615 129.08 173.246 120.181 187.143 117.539C191.654 116.686 202.137 117.011 206.567 118.108Z"/></svg>
        </g>
         
        <g transform="translate(1500, 0)">
          <svg xmlns="http://www.w3.org/2000/svg" width="256" height="256" fill="none" viewBox="0 0 256 256"><rect width="256" height="256" fill="#242938" rx="60"/><path fill="#81CD39" d="M119.878 31.1164C124.797 28.3008 131.203 28.2883 136.117 31.1164C160.839 45.0855 185.569 59.0332 210.287 73.0108C214.937 75.6296 218.046 80.8038 217.999 86.1608V170.206C218.034 175.785 214.617 181.083 209.712 183.642C185.071 197.535 160.442 211.444 135.805 225.337C130.786 228.207 124.251 227.986 119.387 224.88C112 220.598 104.6 216.336 97.2121 212.058C95.7022 211.158 94.0004 210.442 92.9345 208.978C93.8766 207.708 95.5618 207.55 96.9309 206.995C100.014 206.014 102.847 204.44 105.679 202.913C106.396 202.423 107.27 202.611 107.957 203.049C114.274 206.671 120.536 210.399 126.874 213.986C128.226 214.767 129.595 213.73 130.751 213.086C154.931 199.419 179.141 185.805 203.318 172.134C204.214 171.703 204.709 170.752 204.636 169.771C204.653 142.046 204.64 114.317 204.645 86.5918C204.747 85.4785 204.103 84.455 203.096 83.999C178.541 70.1702 153.997 56.3205 129.446 42.4882C128.575 41.8893 127.426 41.8878 126.554 42.4837C102.002 56.3205 77.4638 70.1832 52.9124 84.011C51.9092 84.4675 51.236 85.4745 51.3554 86.5918C51.3596 114.317 51.3554 142.046 51.3554 169.775C51.2682 170.756 51.801 171.687 52.6906 172.109C59.2422 175.824 65.8024 179.513 72.3582 183.216C76.0516 185.203 80.5863 186.385 84.6555 184.862C88.2463 183.574 90.7633 179.909 90.6948 176.097C90.7288 148.534 90.6778 120.967 90.7203 93.4078C90.6309 92.1841 91.7912 91.1731 92.981 91.2885C96.1292 91.267 99.281 91.2461 102.429 91.297C103.743 91.267 104.647 92.5847 104.485 93.8174C104.472 121.555 104.519 149.293 104.464 177.03C104.472 184.423 101.435 192.467 94.5973 196.084C86.1737 200.447 75.7619 199.522 67.4399 195.338C60.2355 191.742 53.3603 187.498 46.2838 183.646C41.3661 181.101 37.966 175.782 38.0006 170.207V86.1608C37.949 80.6929 41.1825 75.4248 45.9764 72.8445C70.6133 58.9408 95.2461 45.0261 119.878 31.1164Z"/><path fill="#81CD39" d="M141.372 89.3351C152.117 88.6433 163.62 88.9255 173.289 94.2185C180.776 98.2754 184.926 106.789 185.058 115.106C184.849 116.227 183.676 116.846 182.605 116.769C179.488 116.765 176.369 116.812 173.252 116.748C171.929 116.799 171.161 115.58 170.995 114.411C170.099 110.431 167.928 106.49 164.183 104.57C158.433 101.692 151.767 101.837 145.497 101.897C140.92 102.139 135.998 102.536 132.12 105.227C129.143 107.266 128.239 111.382 129.301 114.697C130.303 117.077 133.05 117.845 135.299 118.553C148.248 121.94 161.97 121.602 174.672 126.059C179.931 127.876 185.075 131.409 186.875 136.915C189.23 144.295 188.198 153.115 182.947 159.039C178.689 163.914 172.488 166.568 166.303 168.009C158.075 169.844 149.536 169.891 141.18 169.076C133.323 168.18 125.146 166.116 119.081 160.763C113.894 156.259 111.361 149.241 111.612 142.469C111.672 141.325 112.811 140.527 113.907 140.621C117.046 140.596 120.186 140.587 123.325 140.626C124.58 140.536 125.509 141.62 125.574 142.802C126.152 146.593 127.577 150.573 130.884 152.82C137.264 156.937 145.271 156.655 152.577 156.77C158.63 156.502 165.425 156.421 170.364 152.42C172.97 150.138 173.742 146.32 173.038 143.036C172.275 140.263 169.374 138.971 166.883 138.126C154.1 134.083 140.224 135.55 127.565 130.977C122.425 129.161 117.455 125.727 115.481 120.447C112.726 112.974 113.988 103.73 119.789 98.0061C125.445 92.312 133.609 90.1192 141.372 89.3346V89.3351"/></svg>
        </g>
         
        <g transform="translate(1800, 0)">
          <svg xmlns="http://www.w3.org/2000/svg" width="256" height="256" fill="none" viewBox="0 0 256 256"><rect width="256" height="256" fill="#242938" rx="60"/><path fill="#41B883" d="M182 50H218L128 205.25L38 50H73.55H106.85L128 86L148.7 50H182Z"/><path fill="#41B883" d="M38 50L128 205.25L218 50H182L128 143.15L73.55 50H38Z"/><path fill="#fff" d="M73.55 50L128 143.6L182 50H148.7L128 86L106.85 50H73.55Z"/></svg>
        </g>
         
        <g transform="translate(2100, 0)">
          <svg width="256" height="256" viewBox="0 0 256 256" fill="none" xmlns="http://www.w3.org/2000/svg">
<rect width="256" height="256" rx="60" fill="#242938"/>
<path d="M34.25 61.125L127.325 28L222.85 60.6125L207.412 183.7L127.325 228L48.5375 184.275L34.25 61.125Z" fill="#E23237"/>
<path d="M222.85 60.6125L127.325 28V228L207.412 183.7L222.85 60.6125Z" fill="#B52E31"/>
<path d="M127.469 51.375L69.4688 180.375L91.1125 179.937L102.8 150.788H154.675L167.375 180.163L188.012 180.6L127.469 51.375ZM127.612 92.7875L147.237 133.769H110.5L127.669 92.7875H127.612Z" fill="white"/>
</svg>

        </g>
         
        <g transform="translate(2400, 0)">
          <svg xmlns="http://www.w3.org/2000/svg" width="256" height="256" fill="none" viewBox="0 0 256 256"><rect width="256" height="256" fill="#242938" rx="60"/><path fill="#336791" d="M203.48 148.688C183.16 152.878 181.684 145.995 181.684 145.995C203.15 114.143 212.129 73.7134 204.38 63.8204C183.259 36.8204 146.689 49.5962 146.077 49.9266L145.88 49.9618C141.414 49.0656 136.873 48.5924 132.317 48.5485C123.12 48.4079 116.145 50.9602 110.844 54.9751C110.844 54.9751 45.6078 28.1016 48.6453 88.7743C49.2922 101.684 67.1375 186.509 88.4422 160.845C96.2891 151.409 103.812 143.484 103.812 143.484C107.539 145.966 112.018 147.232 116.708 146.775L117.073 146.466C116.966 147.681 117.016 148.905 117.221 150.108C111.737 156.239 113.354 157.315 102.385 159.572C91.2898 161.857 97.8148 165.928 102.062 166.997C107.223 168.291 119.162 170.119 127.234 158.827L126.91 160.113C129.062 161.836 130.566 171.314 130.313 179.906C130.06 188.499 129.891 194.391 131.579 199.003C133.266 203.616 134.954 213.98 149.368 210.956C161.413 208.376 167.649 201.675 168.528 190.524C169.147 182.592 170.539 183.759 170.638 176.672L171.763 173.311C173.049 162.553 171.973 159.087 179.391 160.704L181.198 160.866C186.662 161.112 193.813 159.987 198.003 158.039C207.038 153.849 212.396 146.845 203.487 148.688H203.48Z"/><path stroke="#fff" stroke-linecap="round" stroke-linejoin="round" stroke-width="5.034" d="M146.07 48.5961C143.82 49.2993 182.38 34.4985 204.303 62.504C212.038 72.3969 203.073 112.827 181.606 144.678M128.098 153.784C127.536 173.795 128.239 193.946 130.194 198.784C132.148 203.621 136.346 213.198 150.767 210.118C162.812 207.538 167.199 202.538 169.098 191.506L173.548 156.231L128.098 153.784ZM110.816 53.4688C110.816 53.4688 45.5375 26.7782 48.575 87.4508C49.2219 100.36 67.0672 185.185 88.3719 159.521C96.1484 150.148 103.18 142.815 103.18 142.815L110.816 53.4688Z"/><path stroke="#fff" stroke-linecap="round" stroke-linejoin="bevel" stroke-width="5.034" d="M181.613 144.664C181.613 144.664 183.02 151.555 203.41 147.35C212.319 145.508 206.954 152.511 197.926 156.702C190.515 160.147 173.893 161.026 173.619 156.28C172.916 144.01 182.366 147.737 181.684 144.664C181.065 141.894 176.832 139.18 174.048 132.402C171.608 126.495 140.579 81.1438 182.654 87.8727C184.201 87.5563 171.685 47.7946 132.31 47.2181C92.9352 46.6415 94.1797 95.6282 94.1797 95.6282"/><path stroke="#fff" stroke-linejoin="round" stroke-width="5.034" d="M117.08 148.869C111.596 155 113.213 156.076 102.245 158.333C91.1492 160.618 97.6742 164.689 101.921 165.758C107.082 167.052 119.021 168.88 127.093 157.58C129.554 154.135 127.079 148.651 123.704 147.259C122.073 146.584 119.893 145.74 117.095 148.876L117.08 148.869Z"/><path stroke="#fff" stroke-linecap="round" stroke-linejoin="round" stroke-width="5.034" d="M116.722 148.763C116.159 145.156 117.903 140.874 119.766 135.854C122.565 128.331 129.02 120.807 123.859 96.9219C120.013 79.1329 94.1867 93.2165 94.1867 95.6282C94.1867 98.0399 95.3539 107.863 93.7648 119.288C91.6766 134.209 103.257 146.823 116.588 145.536"/><path fill="#fff" stroke="#fff" stroke-width="1.68" d="M110.577 95.2695C110.457 96.0922 112.088 98.293 114.205 98.5883C116.321 98.8836 118.128 97.168 118.248 96.3383C118.367 95.5086 116.736 94.6086 114.62 94.3133C112.503 94.018 110.682 94.4539 110.577 95.2695V95.2695Z"/><path fill="#fff" stroke="#fff" stroke-width=".837" d="M175.011 93.5891C175.123 94.4118 173.499 96.6125 171.383 96.9079C169.266 97.2032 167.445 95.4875 167.34 94.6579C167.234 93.8282 168.852 92.9282 170.968 92.6329C173.084 92.3375 174.905 92.7735 175.011 93.5891Z"/><path stroke="#fff" stroke-linecap="round" stroke-linejoin="round" stroke-width="5.034" d="M182.577 87.8867C182.928 94.3555 181.184 98.75 180.959 105.634C180.636 115.632 185.727 127.079 178.055 138.54"/></svg>
        </g>
         
        <g transform="translate(2700, 0)">
          <svg xmlns="http://www.w3.org/2000/svg" width="256" height="256" fill="none" viewBox="0 0 256 256"><rect width="256" height="256" fill="#023430" rx="60"/><path fill="#10AA50" d="M171.173 107.591C160.636 61.1097 138.676 48.7357 133.074 39.9886C130.764 36.1353 128.717 32.1299 126.949 28C126.653 32.1292 126.109 34.7307 122.599 37.862C115.552 44.1454 85.6217 68.5354 83.1028 121.348C80.756 170.59 119.303 200.953 124.395 204.092C128.311 206.019 133.08 204.133 135.407 202.364C153.988 189.612 179.376 155.614 171.193 107.591"/><path fill="#B8C4C2" d="M128.545 177.871C127.575 190.059 126.88 197.141 124.416 204.106C124.416 204.106 126.033 215.709 127.169 228H131.188C132.147 219.345 133.61 210.753 135.572 202.268C130.369 199.708 128.745 188.566 128.545 177.871Z"/><path fill="#12924F" d="M135.565 202.275C130.307 199.846 128.786 188.469 128.552 177.871C129.852 160.388 130.231 142.849 129.688 125.326C129.412 116.132 129.818 40.1676 127.423 29.0461C129.062 32.8129 130.949 36.4662 133.074 39.9818C138.676 48.7358 160.643 61.1097 171.173 107.591C179.376 155.532 154.126 189.44 135.565 202.275Z"/></svg>
        </g>
         
        <g transform="translate(3000, 0)">
          <svg xmlns="http://www.w3.org/2000/svg" width="256" height="256" fill="none" viewBox="0 0 256 256"><rect width="256" height="256" fill="#2396ED" rx="60"/><path fill="#fff" d="M141.187 122.123H161.904V103.379H141.187V122.123ZM116.525 122.123H137.241V103.379H116.525V122.123ZM92.3554 122.123H113.072V103.379H92.3554V122.123ZM68.1859 122.123H88.4093V103.379H68.1859V122.123ZM43.5233 122.123H64.2399V103.379H43.5233V122.123ZM68.1859 99.4333H88.4093V80.6896H68.1859V99.4333ZM92.3554 99.4333H113.072V80.6896H92.3554V99.4333ZM116.525 99.4333H137.241V80.6896H116.525V99.4333ZM116.525 76.7436H137.241V58H116.525V76.7436ZM228 113.738C228 113.738 219.121 105.352 200.871 108.312C198.898 94.0075 183.607 85.6222 183.607 85.6222C183.607 85.6222 169.303 102.886 179.661 122.123C176.702 123.603 171.769 125.576 164.37 125.576H28.7257C26.2594 134.948 26.2594 197.097 94.3284 197.097C143.16 197.097 179.661 174.408 196.925 132.974C222.574 134.948 228 113.738 228 113.738Z"/></svg>
        </g>
         
        <g transform="translate(3300, 0)">
          <svg xmlns="http://www.w3.org/2000/svg" width="256" height="256" fill="none" viewBox="0 0 256 256"><rect width="256" height="256" fill="#242938" rx="60"/><path fill="url(#paint0_linear_159_730)" d="M94.6743 34.0023H153.856L92.4196 216.032C91.7882 217.902 90.586 219.528 88.9824 220.679C87.3788 221.831 85.4545 222.45 83.4803 222.451H37.4223C35.9265 222.451 34.4522 222.095 33.1213 221.412C31.7904 220.729 30.6411 219.74 29.7687 218.525C28.8962 217.31 28.3256 215.905 28.104 214.425C27.8824 212.946 28.0162 211.435 28.4943 210.018L85.7327 40.4209C86.3639 38.5497 87.5662 36.9236 89.1703 35.7717C90.7744 34.6198 92.6995 34.0001 94.6743 34V34.0023Z"/><path fill="#0078D4" d="M180.674 156.095H86.8261C85.9536 156.094 85.101 156.356 84.3795 156.847C83.6579 157.337 83.1008 158.034 82.7807 158.845C82.4606 159.657 82.3923 160.546 82.5848 161.397C82.7773 162.248 83.2217 163.022 83.86 163.616L144.165 219.903C145.92 221.54 148.232 222.451 150.633 222.451H203.774L180.674 156.095Z"/><path fill="url(#paint1_linear_159_730)" d="M94.6745 34.0023C92.6781 33.9946 90.7315 34.6255 89.1192 35.8028C87.5068 36.98 86.3131 38.642 85.7125 40.5459L28.5649 209.863C28.0546 211.286 27.8944 212.81 28.0979 214.308C28.3013 215.805 28.8624 217.232 29.7337 218.466C30.6051 219.701 31.7609 220.708 33.1036 221.401C34.4463 222.095 35.9362 222.455 37.4474 222.451H84.6942C86.4539 222.136 88.0986 221.36 89.4603 220.202C90.822 219.044 91.8519 217.546 92.4448 215.859L103.841 182.273L144.549 220.241C146.255 221.652 148.395 222.433 150.608 222.451H203.551L180.331 156.096L112.642 156.112L154.07 34.0023H94.6745Z"/><path fill="url(#paint2_linear_159_730)" d="M170.264 40.4118C169.634 38.5435 168.434 36.9201 166.832 35.7702C165.23 34.6204 163.308 34.002 161.336 34.0022H95.3792C97.3508 34.0023 99.2727 34.6208 100.874 35.7707C102.476 36.9205 103.677 38.5437 104.307 40.4118L161.548 210.016C162.026 211.433 162.16 212.944 161.939 214.424C161.718 215.904 161.147 217.309 160.275 218.525C159.402 219.74 158.253 220.73 156.922 221.413C155.591 222.096 154.116 222.453 152.62 222.453H218.579C220.075 222.452 221.55 222.096 222.88 221.413C224.211 220.729 225.36 219.739 226.233 218.524C227.105 217.308 227.675 215.903 227.896 214.423C228.118 212.944 227.984 211.433 227.505 210.016L170.264 40.4118Z"/><defs><linearGradient id="paint0_linear_159_730" x1="116.244" x2="54.783" y1="47.967" y2="229.54" gradientUnits="userSpaceOnUse"><stop stop-color="#114A8B"/><stop offset="1" stop-color="#0669BC"/></linearGradient><linearGradient id="paint1_linear_159_730" x1="135.444" x2="121.227" y1="132.585" y2="137.392" gradientUnits="userSpaceOnUse"><stop stop-opacity=".3"/><stop offset=".071" stop-opacity=".2"/><stop offset=".321" stop-opacity=".1"/><stop offset=".623" stop-opacity=".05"/><stop offset="1" stop-opacity="0"/></linearGradient><linearGradient id="paint2_linear_159_730" x1="127.625" x2="195.091" y1="42.671" y2="222.414" gradientUnits="userSpaceOnUse"><stop stop-color="#3CCBF4"/><stop offset="1" stop-color="#2892DF"/></linearGradient></defs></svg>
        </g>
         
        <g transform="translate(3600, 0)">
          <svg xmlns="http://www.w3.org/2000/svg" width="256" height="256" fill="none" viewBox="0 0 256 256"><rect width="256" height="256" fill="#F03C2E" rx="60"/><g clip-path="url(#clip0_7_283)"><path fill="#fff" d="M224.225 119.094L136.906 31.775C135.711 30.5787 134.291 29.6298 132.729 28.9824C131.166 28.3349 129.491 28.0017 127.8 28.0017C126.109 28.0017 124.434 28.3349 122.871 28.9824C121.309 29.6298 119.889 30.5787 118.694 31.775L100.569 49.9L123.569 72.9C128.919 71.025 135.044 72.3062 139.306 76.5687C141.335 78.6014 142.752 81.1638 143.394 83.9632C144.036 86.7626 143.878 89.6862 142.937 92.4L165.106 114.569C170.469 112.719 176.656 113.912 180.937 118.206C182.361 119.63 183.49 121.32 184.26 123.18C185.03 125.04 185.426 127.033 185.426 129.046C185.425 131.059 185.029 133.052 184.258 134.912C183.487 136.771 182.358 138.461 180.934 139.884C179.511 141.308 177.821 142.436 175.961 143.206C174.101 143.977 172.108 144.373 170.095 144.372C168.082 144.372 166.088 143.975 164.229 143.205C162.369 142.434 160.679 141.305 159.256 139.881C154.756 135.381 153.644 128.756 155.919 123.212L135.244 102.537V156.944C136.745 157.686 138.116 158.666 139.306 159.844C140.729 161.267 141.858 162.956 142.629 164.816C143.399 166.675 143.795 168.668 143.795 170.681C143.795 172.694 143.399 174.687 142.629 176.546C141.858 178.406 140.729 180.096 139.306 181.519C137.883 182.942 136.193 184.071 134.334 184.841C132.474 185.611 130.481 186.008 128.469 186.008C126.456 186.008 124.463 185.611 122.604 184.841C120.744 184.071 119.054 182.942 117.631 181.519C116.206 180.096 115.076 178.407 114.305 176.548C113.533 174.688 113.136 172.694 113.136 170.681C113.136 168.668 113.533 166.675 114.305 164.815C115.076 162.955 116.206 161.266 117.631 159.844C119.112 158.369 120.756 157.25 122.65 156.5V101.587C120.825 100.837 119.112 99.7312 117.631 98.2437C115.479 96.0943 114.016 93.3526 113.428 90.3684C112.841 87.3841 113.155 84.2924 114.331 81.4875L91.6437 58.8125L31.7687 118.625C30.5716 119.821 29.6219 121.241 28.9739 122.804C28.3259 124.367 27.9924 126.042 27.9924 127.734C27.9924 129.426 28.3259 131.102 28.9739 132.665C29.6219 134.228 30.5716 135.648 31.7687 136.844L119.094 224.156C120.289 225.352 121.709 226.301 123.271 226.949C124.834 227.596 126.509 227.929 128.2 227.929C129.891 227.929 131.566 227.596 133.129 226.949C134.691 226.301 136.111 225.352 137.306 224.156L224.225 137.375C225.422 136.179 226.372 134.759 227.02 133.196C227.668 131.633 228.001 129.958 228.001 128.266C228.001 126.574 227.668 124.898 227.02 123.335C226.372 121.772 225.422 120.352 224.225 119.156"/></g><defs><clipPath id="clip0_7_283"><rect width="200" height="200" fill="#fff" transform="translate(28 28)"/></clipPath></defs></svg>
        </g>
         
        <g transform="translate(3900, 0)">
          <svg xmlns="http://www.w3.org/2000/svg" width="256" height="256" fill="none" viewBox="0 0 256 256"><rect width="256" height="256" fill="#242938" rx="60"/><path fill="url(#paint0_linear_2_119)" fill-rule="evenodd" d="M83 110C88.9991 86.0009 104.001 74 128 74C164 74 168.5 101 186.5 105.5C198.501 108.501 209 104.001 218 92C212.001 115.999 196.999 128 173 128C137 128 132.5 101 114.5 96.5C102.499 93.4991 92 97.9991 83 110ZM38 164C43.9991 140.001 59.0009 128 83 128C119 128 123.5 155 141.5 159.5C153.501 162.501 164 158.001 173 146C167.001 169.999 151.999 182 128 182C92 182 87.5 155 69.5 150.5C57.4991 147.499 47 151.999 38 164Z" clip-rule="evenodd"/><defs><linearGradient id="paint0_linear_2_119" x1="86.5" x2="163.5" y1="74" y2="185.5" gradientUnits="userSpaceOnUse"><stop stop-color="#32B1C1"/><stop offset="1" stop-color="#14C6B7"/></linearGradient></defs></svg>
        </g>
        
  </g>
</svg>